<svg class="main-svg" xmlns="http://www.w3.org/2000/svg" xmlns:xlink="http://www.w3.org/1999/xlink" width="700" height="500" style="" viewBox="0 0 700 500"><rect x="0" y="0" width="700" height="500" style="fill: rgb(255, 255, 255); fill-opacity: 1;"/><defs id="defs-b70c6f"><g class="clips"><clipPath id="clipb70c6fxyplot" class="plotclip"><rect width="540" height="267"/></clipPath><clipPath class="axesclip" id="clipb70c6fx"><rect x="80" y="0" width="540" height="500"/></clipPath><clipPath class="axesclip" id="clipb70c6fy"><rect x="0" y="100" width="700" height="267"/></clipPath><clipPath class="axesclip" id="clipb70c6fxy"><rect x="80" y="100" width="540" height="267"/></clipPath></g><g class="gradients"/><g class="patterns"/></defs><g class="bglayer"/><g class="layer-below"><g class="imagelayer"/><g class="shapelayer"/></g><g class="cartesianlayer"><g class="subplot xy"><g class="layer-subplot"><g class="shapelayer"/><g class="imagelayer"/></g><g class="minor-gridlayer"><g class="x"/><g class="y"/></g><g class="gridlayer"><g class="x"/><g class="y"><path class="ygrid crisp" transform="translate(0,361.28)" d="M80,0h540" style="stroke: rgb(255, 255, 255); stroke-opacity: 1; stroke-width: 1px;"/><path class="ygrid crisp" transform="translate(0,323.14)" d="M80,0h540" style="stroke: rgb(255, 255, 255); stroke-opacity: 1; stroke-width: 1px;"/><path class="ygrid crisp" transform="translate(0,284.99)" d="M80,0h540" style="stroke: rgb(255, 255, 255); stroke-opacity: 1; stroke-width: 1px;"/><path class="ygrid crisp" transform="translate(0,246.85)" d="M80,0h540" style="stroke: rgb(255, 255, 255); stroke-opacity: 1; stroke-width: 1px;"/><path class="ygrid crisp" transform="translate(0,208.70999999999998)" d="M80,0h540" style="stroke: rgb(255, 255, 255); stroke-opacity: 1; stroke-width: 1px;"/><path class="ygrid crisp" transform="translate(0,170.56)" d="M80,0h540" style="stroke: rgb(255, 255, 255); stroke-opacity: 1; stroke-width: 1px;"/><path class="ygrid crisp" transform="translate(0,132.42000000000002)" d="M80,0h540" style="stroke: rgb(255, 255, 255); stroke-opacity: 1; stroke-width: 1px;"/></g></g><g class="zerolinelayer"/><g class="layer-between"><g class="shapelayer"/><g class="imagelayer"/></g><path class="xlines-below"/><path class="ylines-below"/><g class="overlines-below"/><g class="xaxislayer-below"/><g class="yaxislayer-below"/><g class="overaxes-below"/><g class="overplot"><g class="xy" transform="translate(80,100)" clip-path="url(#clipb70c6fxyplot)"><g class="boxlayer mlayer"><g class="trace boxes" style="opacity: 1;"><path class="box" d="M15.3,148.38H44.7M15.3,202.54H44.7V123.96H15.3ZM30,202.54V226.95M30,123.96V77.43M22.65,226.95H37.35M22.65,77.43H37.35" style="vector-effect: none; stroke-width: 2px; stroke: rgb(68, 1, 84); stroke-opacity: 1; fill: rgb(68, 1, 84); fill-opacity: 0.5;"/><g class="points"/></g><g class="trace boxes" style="opacity: 1;"><path class="box" d="M75.3,154.48H104.7M75.3,193.38H104.7V108.71H75.3ZM90,193.38V253.65M90,108.71V49.2M82.65,253.65H97.35M82.65,49.2H97.35" style="vector-effect: none; stroke-width: 2px; stroke: rgb(72, 40, 120); stroke-opacity: 1; fill: rgb(72, 40, 120); fill-opacity: 0.5;"/><g class="points"/></g><g class="trace boxes" style="opacity: 1;"><path class="box" d="M135.3,155.24H164.7M135.3,200.82H164.7V104.13H135.3ZM150,200.82V253.65M150,104.13V70.56M142.65,253.65H157.35M142.65,70.56H157.35" style="vector-effect: none; stroke-width: 2px; stroke: rgb(62, 73, 137); stroke-opacity: 1; fill: rgb(62, 73, 137); fill-opacity: 0.5;"/><g class="points"/></g><g class="trace boxes" style="opacity: 1;"><path class="box" d="M195.3,173.55H224.7M195.3,205.59H224.7V143.04H195.3ZM210,205.59V253.65M210,143.04V93.45M202.65,253.65H217.35M202.65,93.45H217.35" style="vector-effect: none; stroke-width: 2px; stroke: rgb(49, 104, 142); stroke-opacity: 1; fill: rgb(49, 104, 142); fill-opacity: 0.5;"/><g class="points"/></g><g class="trace boxes" style="opacity: 1;"><path class="box" d="M255.3,175.46H284.7M255.3,206.35H284.7V144.94H255.3ZM270,206.35V253.65M270,144.94V72.85M262.65,253.65H277.35M262.65,72.85H277.35" style="vector-effect: none; stroke-width: 2px; stroke: rgb(38, 130, 142); stroke-opacity: 1; fill: rgb(38, 130, 142); fill-opacity: 0.5;"/><g class="points"/></g><g class="trace boxes" style="opacity: 1;"><path class="box" d="M315.3,178.13H344.7M315.3,199.49H344.7V143.42H315.3ZM330,199.49V253.65M330,143.42V74.38M322.65,253.65H337.35M322.65,74.38H337.35" style="vector-effect: none; stroke-width: 2px; stroke: rgb(31, 158, 137); stroke-opacity: 1; fill: rgb(31, 158, 137); fill-opacity: 0.5;"/><g class="points"><path class="point" transform="translate(330,59.12)" d="M3,0A3,3 0 1,1 0,-3A3,3 0 0,1 3,0Z" style="opacity: 1; stroke-width: 0px; fill: rgb(31, 158, 137); fill-opacity: 1;"/><path class="point" transform="translate(330,51.49)" d="M3,0A3,3 0 1,1 0,-3A3,3 0 0,1 3,0Z" style="opacity: 1; stroke-width: 0px; fill: rgb(31, 158, 137); fill-opacity: 1;"/></g></g><g class="trace boxes" style="opacity: 1;"><path class="box" d="M375.3,184.99H404.7M375.3,220.28H404.7V143.99H375.3ZM390,220.28V253.65M390,143.99V89.64M382.65,253.65H397.35M382.65,89.64H397.35" style="vector-effect: none; stroke-width: 2px; stroke: rgb(53, 183, 121); stroke-opacity: 1; fill: rgb(53, 183, 121); fill-opacity: 0.5;"/><g class="points"/></g><g class="trace boxes" style="opacity: 1;"><path class="box" d="M435.3,186.9H464.7M435.3,215.51H464.7V165.92H435.3ZM450,215.51V253.65M450,165.92V104.13M442.65,253.65H457.35M442.65,104.13H457.35" style="vector-effect: none; stroke-width: 2px; stroke: rgb(110, 206, 88); stroke-opacity: 1; fill: rgb(110, 206, 88); fill-opacity: 0.5;"/><g class="points"><path class="point" transform="translate(450,13.35)" d="M3,0A3,3 0 1,1 0,-3A3,3 0 0,1 3,0Z" style="opacity: 1; stroke-width: 0px; fill: rgb(110, 206, 88); fill-opacity: 1;"/></g></g><g class="trace boxes" style="opacity: 1;"><path class="box" d="M495.3,196.44H524.7M495.3,219.32H524.7V167.83H495.3ZM510,219.32V253.65M510,167.83V104.13M502.65,253.65H517.35M502.65,104.13H517.35" style="vector-effect: none; stroke-width: 2px; stroke: rgb(181, 222, 43); stroke-opacity: 1; fill: rgb(181, 222, 43); fill-opacity: 0.5;"/><g class="points"/></g></g></g></g><g class="zerolinelayer-above"/><path class="xlines-above crisp" d="M0,0" style="fill: none;"/><path class="ylines-above crisp" d="M0,0" style="fill: none;"/><g class="overlines-above"/><g class="xaxislayer-above"><g class="xtick"><text text-anchor="end" x="0" y="380" transform="translate(110,0) rotate(-45,0,374)" style="font-family: 'Open Sans', verdana, arial, sans-serif; font-size: 12px; fill: rgb(42, 63, 95); fill-opacity: 1; white-space: pre;">Юго-Западный</text></g><g class="xtick"><text text-anchor="end" x="0" y="380" transform="translate(170,0) rotate(-45,0,374)" style="font-family: 'Open Sans', verdana, arial, sans-serif; font-size: 12px; fill: rgb(42, 63, 95); fill-opacity: 1; white-space: pre;">Центральный</text></g><g class="xtick"><text text-anchor="end" x="0" y="380" transform="translate(230,0) rotate(-45,0,374)" style="font-family: 'Open Sans', verdana, arial, sans-serif; font-size: 12px; fill: rgb(42, 63, 95); fill-opacity: 1; white-space: pre;">Западный</text></g><g class="xtick"><text text-anchor="end" x="0" y="380" transform="translate(290,0) rotate(-45,0,374)" style="font-family: 'Open Sans', verdana, arial, sans-serif; font-size: 12px; fill: rgb(42, 63, 95); fill-opacity: 1; white-space: pre;">Северо-Западный</text></g><g class="xtick"><text text-anchor="end" x="0" y="380" transform="translate(350,0) rotate(-45,0,374)" style="font-family: 'Open Sans', verdana, arial, sans-serif; font-size: 12px; fill: rgb(42, 63, 95); fill-opacity: 1; white-space: pre;">Северо-Восточный</text></g><g class="xtick"><text text-anchor="end" x="0" y="380" transform="translate(410,0) rotate(-45,0,374)" style="font-family: 'Open Sans', verdana, arial, sans-serif; font-size: 12px; fill: rgb(42, 63, 95); fill-opacity: 1; white-space: pre;">Северный</text></g><g class="xtick"><text text-anchor="end" x="0" y="380" transform="translate(470,0) rotate(-45,0,374)" style="font-family: 'Open Sans', verdana, arial, sans-serif; font-size: 12px; fill: rgb(42, 63, 95); fill-opacity: 1; white-space: pre;">Южный</text></g><g class="xtick"><text text-anchor="end" x="0" y="380" transform="translate(530,0) rotate(-45,0,374)" style="font-family: 'Open Sans', verdana, arial, sans-serif; font-size: 12px; fill: rgb(42, 63, 95); fill-opacity: 1; white-space: pre;">Юго-Восточный</text></g><g class="xtick"><text text-anchor="end" x="0" y="380" transform="translate(590,0) rotate(-45,0,374)" style="font-family: 'Open Sans', verdana, arial, sans-serif; font-size: 12px; fill: rgb(42, 63, 95); fill-opacity: 1; white-space: pre;">Восточный</text></g></g><g class="yaxislayer-above"><g class="ytick"><text text-anchor="end" x="79" y="4.199999999999999" transform="translate(0,361.28)" style="font-family: 'Open Sans', verdana, arial, sans-serif; font-size: 12px; fill: rgb(42, 63, 95); fill-opacity: 1; white-space: pre;">50</text></g><g class="ytick"><text text-anchor="end" x="79" y="4.199999999999999" style="font-family: 'Open Sans', verdana, arial, sans-serif; font-size: 12px; fill: rgb(42, 63, 95); fill-opacity: 1; white-space: pre;" transform="translate(0,323.14)">100</text></g><g class="ytick"><text text-anchor="end" x="79" y="4.199999999999999" style="font-family: 'Open Sans', verdana, arial, sans-serif; font-size: 12px; fill: rgb(42, 63, 95); fill-opacity: 1; white-space: pre;" transform="translate(0,284.99)">150</text></g><g class="ytick"><text text-anchor="end" x="79" y="4.199999999999999" style="font-family: 'Open Sans', verdana, arial, sans-serif; font-size: 12px; fill: rgb(42, 63, 95); fill-opacity: 1; white-space: pre;" transform="translate(0,246.85)">200</text></g><g class="ytick"><text text-anchor="end" x="79" y="4.199999999999999" style="font-family: 'Open Sans', verdana, arial, sans-serif; font-size: 12px; fill: rgb(42, 63, 95); fill-opacity: 1; white-space: pre;" transform="translate(0,208.70999999999998)">250</text></g><g class="ytick"><text text-anchor="end" x="79" y="4.199999999999999" style="font-family: 'Open Sans', verdana, arial, sans-serif; font-size: 12px; fill: rgb(42, 63, 95); fill-opacity: 1; white-space: pre;" transform="translate(0,170.56)">300</text></g><g class="ytick"><text text-anchor="end" x="79" y="4.199999999999999" style="font-family: 'Open Sans', verdana, arial, sans-serif; font-size: 12px; fill: rgb(42, 63, 95); fill-opacity: 1; white-space: pre;" transform="translate(0,132.42000000000002)">350</text></g></g><g class="overaxes-above"/></g></g><g class="polarlayer"/><g class="smithlayer"/><g class="ternarylayer"/><g class="geolayer"/><g class="funnelarealayer"/><g class="pielayer"/><g class="iciclelayer"/><g class="treemaplayer"/><g class="sunburstlayer"/><g class="glimages"/><defs id="topdefs-b70c6f"><g class="clips"/></defs><g class="layer-above"><g class="imagelayer"/><g class="shapelayer"/></g><g class="infolayer"><g class="g-gtitle"><text class="gtitle" x="35" y="50" text-anchor="start" dy="0em" style="opacity: 1; font-family: 'Open Sans', verdana, arial, sans-serif; font-size: 17px; fill: rgb(42, 63, 95); fill-opacity: 1; white-space: pre;">Распределение цены капучино по административным округам</text></g><g class="g-xtitle"><text class="xtitle" x="350" y="487.61640625" text-anchor="middle" style="opacity: 1; font-family: 'Open Sans', verdana, arial, sans-serif; font-size: 14px; fill: rgb(42, 63, 95); fill-opacity: 1; white-space: pre;">Округ</text></g><g class="g-ytitle"><text class="ytitle" transform="rotate(-90,36.709375,233.5)" x="36.709375" y="233.5" text-anchor="middle" style="opacity: 1; font-family: 'Open Sans', verdana, arial, sans-serif; font-size: 14px; fill: rgb(42, 63, 95); fill-opacity: 1; white-space: pre;">Цена капучино (₽)</text></g></g></svg>