<svg class="main-svg" xmlns="http://www.w3.org/2000/svg" xmlns:xlink="http://www.w3.org/1999/xlink" width="700" height="500" style="" viewBox="0 0 700 500"><rect x="0" y="0" width="700" height="500" style="fill: rgb(255, 255, 255); fill-opacity: 1;"/><defs id="defs-012306"><g class="clips"><clipPath id="clip012306xyplot" class="plotclip"><rect width="540" height="267"/></clipPath><clipPath class="axesclip" id="clip012306x"><rect x="80" y="0" width="540" height="500"/></clipPath><clipPath class="axesclip" id="clip012306y"><rect x="0" y="100" width="700" height="267"/></clipPath><clipPath class="axesclip" id="clip012306xy"><rect x="80" y="100" width="540" height="267"/></clipPath></g><g class="gradients"/><g class="patterns"/></defs><g class="bglayer"/><g class="layer-below"><g class="imagelayer"/><g class="shapelayer"/></g><g class="cartesianlayer"><g class="subplot xy"><g class="layer-subplot"><g class="shapelayer"/><g class="imagelayer"/></g><g class="minor-gridlayer"><g class="x"/><g class="y"/></g><g class="gridlayer"><g class="x"/><g class="y"><path class="ygrid crisp" transform="translate(0,335.16999999999996)" d="M80,0h540" style="stroke: rgb(255, 255, 255); stroke-opacity: 1; stroke-width: 1px;"/><path class="ygrid crisp" transform="translate(0,298.2)" d="M80,0h540" style="stroke: rgb(255, 255, 255); stroke-opacity: 1; stroke-width: 1px;"/><path class="ygrid crisp" transform="translate(0,261.23)" d="M80,0h540" style="stroke: rgb(255, 255, 255); stroke-opacity: 1; stroke-width: 1px;"/><path class="ygrid crisp" transform="translate(0,224.26)" d="M80,0h540" style="stroke: rgb(255, 255, 255); stroke-opacity: 1; stroke-width: 1px;"/><path class="ygrid crisp" transform="translate(0,187.29000000000002)" d="M80,0h540" style="stroke: rgb(255, 255, 255); stroke-opacity: 1; stroke-width: 1px;"/><path class="ygrid crisp" transform="translate(0,150.32)" d="M80,0h540" style="stroke: rgb(255, 255, 255); stroke-opacity: 1; stroke-width: 1px;"/><path class="ygrid crisp" transform="translate(0,113.35)" d="M80,0h540" style="stroke: rgb(255, 255, 255); stroke-opacity: 1; stroke-width: 1px;"/></g></g><g class="zerolinelayer"/><g class="layer-between"><g class="shapelayer"/><g class="imagelayer"/></g><path class="xlines-below"/><path class="ylines-below"/><g class="overlines-below"/><g class="xaxislayer-below"/><g class="yaxislayer-below"/><g class="overaxes-below"/><g class="overplot"><g class="xy" transform="translate(80,100)" clip-path="url(#clip012306xyplot)"><g class="boxlayer mlayer"><g class="trace boxes" style="opacity: 1;"><path class="box" d="M15.3,142.74H44.7M15.3,175.09H44.7V105.77H15.3ZM30,175.09V235.17M30,105.77V13.35M22.65,235.17H37.35M22.65,13.35H37.35" style="vector-effect: none; stroke-width: 2px; stroke: rgb(68, 1, 84); stroke-opacity: 1; fill: rgb(68, 1, 84); fill-opacity: 0.5;"/><g class="points"/></g><g class="trace boxes" style="opacity: 1;"><path class="box" d="M75.3,142.74H104.7M75.3,179.71H104.7V105.77H75.3ZM90,179.71V253.65M90,105.77V13.35M82.65,253.65H97.35M82.65,13.35H97.35" style="vector-effect: none; stroke-width: 2px; stroke: rgb(72, 40, 120); stroke-opacity: 1; fill: rgb(72, 40, 120); fill-opacity: 0.5;"/><g class="points"/></g><g class="trace boxes" style="opacity: 1;"><path class="box" d="M135.3,142.74H164.7M135.3,179.71H164.7V124.26H135.3ZM150,179.71V253.65M150,124.26V50.32M142.65,253.65H157.35M142.65,50.32H157.35" style="vector-effect: none; stroke-width: 2px; stroke: rgb(62, 73, 137); stroke-opacity: 1; fill: rgb(62, 73, 137); fill-opacity: 0.5;"/><g class="points"><path class="point" transform="translate(150,31.83)" d="M3,0A3,3 0 1,1 0,-3A3,3 0 0,1 3,0Z" style="opacity: 1; stroke-width: 0px; fill: rgb(62, 73, 137); fill-opacity: 1;"/><path class="point" transform="translate(150,31.83)" d="M3,0A3,3 0 1,1 0,-3A3,3 0 0,1 3,0Z" style="opacity: 1; stroke-width: 0px; fill: rgb(62, 73, 137); fill-opacity: 1;"/><path class="point" transform="translate(150,31.83)" d="M3,0A3,3 0 1,1 0,-3A3,3 0 0,1 3,0Z" style="opacity: 1; stroke-width: 0px; fill: rgb(62, 73, 137); fill-opacity: 1;"/><path class="point" transform="translate(150,31.83)" d="M3,0A3,3 0 1,1 0,-3A3,3 0 0,1 3,0Z" style="opacity: 1; stroke-width: 0px; fill: rgb(62, 73, 137); fill-opacity: 1;"/><path class="point" transform="translate(150,31.83)" d="M3,0A3,3 0 1,1 0,-3A3,3 0 0,1 3,0Z" style="opacity: 1; stroke-width: 0px; fill: rgb(62, 73, 137); fill-opacity: 1;"/><path class="point" transform="translate(150,31.83)" d="M3,0A3,3 0 1,1 0,-3A3,3 0 0,1 3,0Z" style="opacity: 1; stroke-width: 0px; fill: rgb(62, 73, 137); fill-opacity: 1;"/><path class="point" transform="translate(150,13.35)" d="M3,0A3,3 0 1,1 0,-3A3,3 0 0,1 3,0Z" style="opacity: 1; stroke-width: 0px; fill: rgb(62, 73, 137); fill-opacity: 1;"/></g></g><g class="trace boxes" style="opacity: 1;"><path class="box" d="M195.3,142.74H224.7M195.3,161.23H224.7V105.77H195.3ZM210,161.23V235.17M210,105.77V31.83M202.65,235.17H217.35M202.65,31.83H217.35" style="vector-effect: none; stroke-width: 2px; stroke: rgb(49, 104, 142); stroke-opacity: 1; fill: rgb(49, 104, 142); fill-opacity: 0.5;"/><g class="points"><path class="point" transform="translate(210,253.65)" d="M3,0A3,3 0 1,1 0,-3A3,3 0 0,1 3,0Z" style="opacity: 1; stroke-width: 0px; fill: rgb(49, 104, 142); fill-opacity: 1;"/><path class="point" transform="translate(210,13.35)" d="M3,0A3,3 0 1,1 0,-3A3,3 0 0,1 3,0Z" style="opacity: 1; stroke-width: 0px; fill: rgb(49, 104, 142); fill-opacity: 1;"/><path class="point" transform="translate(210,13.35)" d="M3,0A3,3 0 1,1 0,-3A3,3 0 0,1 3,0Z" style="opacity: 1; stroke-width: 0px; fill: rgb(49, 104, 142); fill-opacity: 1;"/><path class="point" transform="translate(210,13.35)" d="M3,0A3,3 0 1,1 0,-3A3,3 0 0,1 3,0Z" style="opacity: 1; stroke-width: 0px; fill: rgb(49, 104, 142); fill-opacity: 1;"/><path class="point" transform="translate(210,13.35)" d="M3,0A3,3 0 1,1 0,-3A3,3 0 0,1 3,0Z" style="opacity: 1; stroke-width: 0px; fill: rgb(49, 104, 142); fill-opacity: 1;"/></g></g><g class="trace boxes" style="opacity: 1;"><path class="box" d="M255.3,142.74H284.7M255.3,161.23H284.7V124.26H255.3ZM270,161.23V216.68M270,124.26V68.8M262.65,216.68H277.35M262.65,68.8H277.35" style="vector-effect: none; stroke-width: 2px; stroke: rgb(38, 130, 142); stroke-opacity: 1; fill: rgb(38, 130, 142); fill-opacity: 0.5;"/><g class="points"><path class="point" transform="translate(270,253.65)" d="M3,0A3,3 0 1,1 0,-3A3,3 0 0,1 3,0Z" style="opacity: 1; stroke-width: 0px; fill: rgb(38, 130, 142); fill-opacity: 1;"/><path class="point" transform="translate(270,235.17)" d="M3,0A3,3 0 1,1 0,-3A3,3 0 0,1 3,0Z" style="opacity: 1; stroke-width: 0px; fill: rgb(38, 130, 142); fill-opacity: 1;"/><path class="point" transform="translate(270,235.17)" d="M3,0A3,3 0 1,1 0,-3A3,3 0 0,1 3,0Z" style="opacity: 1; stroke-width: 0px; fill: rgb(38, 130, 142); fill-opacity: 1;"/><path class="point" transform="translate(270,235.17)" d="M3,0A3,3 0 1,1 0,-3A3,3 0 0,1 3,0Z" style="opacity: 1; stroke-width: 0px; fill: rgb(38, 130, 142); fill-opacity: 1;"/><path class="point" transform="translate(270,50.32)" d="M3,0A3,3 0 1,1 0,-3A3,3 0 0,1 3,0Z" style="opacity: 1; stroke-width: 0px; fill: rgb(38, 130, 142); fill-opacity: 1;"/><path class="point" transform="translate(270,50.32)" d="M3,0A3,3 0 1,1 0,-3A3,3 0 0,1 3,0Z" style="opacity: 1; stroke-width: 0px; fill: rgb(38, 130, 142); fill-opacity: 1;"/><path class="point" transform="translate(270,50.32)" d="M3,0A3,3 0 1,1 0,-3A3,3 0 0,1 3,0Z" style="opacity: 1; stroke-width: 0px; fill: rgb(38, 130, 142); fill-opacity: 1;"/><path class="point" transform="translate(270,50.32)" d="M3,0A3,3 0 1,1 0,-3A3,3 0 0,1 3,0Z" style="opacity: 1; stroke-width: 0px; fill: rgb(38, 130, 142); fill-opacity: 1;"/><path class="point" transform="translate(270,50.32)" d="M3,0A3,3 0 1,1 0,-3A3,3 0 0,1 3,0Z" style="opacity: 1; stroke-width: 0px; fill: rgb(38, 130, 142); fill-opacity: 1;"/><path class="point" transform="translate(270,31.83)" d="M3,0A3,3 0 1,1 0,-3A3,3 0 0,1 3,0Z" style="opacity: 1; stroke-width: 0px; fill: rgb(38, 130, 142); fill-opacity: 1;"/><path class="point" transform="translate(270,31.83)" d="M3,0A3,3 0 1,1 0,-3A3,3 0 0,1 3,0Z" style="opacity: 1; stroke-width: 0px; fill: rgb(38, 130, 142); fill-opacity: 1;"/><path class="point" transform="translate(270,31.83)" d="M3,0A3,3 0 1,1 0,-3A3,3 0 0,1 3,0Z" style="opacity: 1; stroke-width: 0px; fill: rgb(38, 130, 142); fill-opacity: 1;"/><path class="point" transform="translate(270,31.83)" d="M3,0A3,3 0 1,1 0,-3A3,3 0 0,1 3,0Z" style="opacity: 1; stroke-width: 0px; fill: rgb(38, 130, 142); fill-opacity: 1;"/><path class="point" transform="translate(270,31.83)" d="M3,0A3,3 0 1,1 0,-3A3,3 0 0,1 3,0Z" style="opacity: 1; stroke-width: 0px; fill: rgb(38, 130, 142); fill-opacity: 1;"/><path class="point" transform="translate(270,31.83)" d="M3,0A3,3 0 1,1 0,-3A3,3 0 0,1 3,0Z" style="opacity: 1; stroke-width: 0px; fill: rgb(38, 130, 142); fill-opacity: 1;"/><path class="point" transform="translate(270,31.83)" d="M3,0A3,3 0 1,1 0,-3A3,3 0 0,1 3,0Z" style="opacity: 1; stroke-width: 0px; fill: rgb(38, 130, 142); fill-opacity: 1;"/><path class="point" transform="translate(270,31.83)" d="M3,0A3,3 0 1,1 0,-3A3,3 0 0,1 3,0Z" style="opacity: 1; stroke-width: 0px; fill: rgb(38, 130, 142); fill-opacity: 1;"/><path class="point" transform="translate(270,31.83)" d="M3,0A3,3 0 1,1 0,-3A3,3 0 0,1 3,0Z" style="opacity: 1; stroke-width: 0px; fill: rgb(38, 130, 142); fill-opacity: 1;"/><path class="point" transform="translate(270,31.83)" d="M3,0A3,3 0 1,1 0,-3A3,3 0 0,1 3,0Z" style="opacity: 1; stroke-width: 0px; fill: rgb(38, 130, 142); fill-opacity: 1;"/><path class="point" transform="translate(270,31.83)" d="M3,0A3,3 0 1,1 0,-3A3,3 0 0,1 3,0Z" style="opacity: 1; stroke-width: 0px; fill: rgb(38, 130, 142); fill-opacity: 1;"/><path class="point" transform="translate(270,13.35)" d="M3,0A3,3 0 1,1 0,-3A3,3 0 0,1 3,0Z" style="opacity: 1; stroke-width: 0px; fill: rgb(38, 130, 142); fill-opacity: 1;"/><path class="point" transform="translate(270,13.35)" d="M3,0A3,3 0 1,1 0,-3A3,3 0 0,1 3,0Z" style="opacity: 1; stroke-width: 0px; fill: rgb(38, 130, 142); fill-opacity: 1;"/><path class="point" transform="translate(270,13.35)" d="M3,0A3,3 0 1,1 0,-3A3,3 0 0,1 3,0Z" style="opacity: 1; stroke-width: 0px; fill: rgb(38, 130, 142); fill-opacity: 1;"/><path class="point" transform="translate(270,13.35)" d="M3,0A3,3 0 1,1 0,-3A3,3 0 0,1 3,0Z" style="opacity: 1; stroke-width: 0px; fill: rgb(38, 130, 142); fill-opacity: 1;"/><path class="point" transform="translate(270,13.35)" d="M3,0A3,3 0 1,1 0,-3A3,3 0 0,1 3,0Z" style="opacity: 1; stroke-width: 0px; fill: rgb(38, 130, 142); fill-opacity: 1;"/></g></g><g class="trace boxes" style="opacity: 1;"><path class="box" d="M315.3,142.74H344.7M315.3,161.23H344.7V87.29H315.3ZM330,161.23V253.65M330,87.29V13.35M322.65,253.65H337.35M322.65,13.35H337.35" style="vector-effect: none; stroke-width: 2px; stroke: rgb(31, 158, 137); stroke-opacity: 1; fill: rgb(31, 158, 137); fill-opacity: 0.5;"/><g class="points"/></g><g class="trace boxes" style="opacity: 1;"><path class="box" d="M375.3,142.74H404.7M375.3,179.71H404.7V105.77H375.3ZM390,179.71V253.65M390,105.77V13.35M382.65,253.65H397.35M382.65,13.35H397.35" style="vector-effect: none; stroke-width: 2px; stroke: rgb(53, 183, 121); stroke-opacity: 1; fill: rgb(53, 183, 121); fill-opacity: 0.5;"/><g class="points"/></g><g class="trace boxes" style="opacity: 1;"><path class="box" d="M435.3,142.74H464.7M435.3,179.71H464.7V124.26H435.3ZM450,179.71V253.65M450,124.26V50.32M442.65,253.65H457.35M442.65,50.32H457.35" style="vector-effect: none; stroke-width: 2px; stroke: rgb(110, 206, 88); stroke-opacity: 1; fill: rgb(110, 206, 88); fill-opacity: 0.5;"/><g class="points"><path class="point" transform="translate(450,31.83)" d="M3,0A3,3 0 1,1 0,-3A3,3 0 0,1 3,0Z" style="opacity: 1; stroke-width: 0px; fill: rgb(110, 206, 88); fill-opacity: 1;"/><path class="point" transform="translate(450,31.83)" d="M3,0A3,3 0 1,1 0,-3A3,3 0 0,1 3,0Z" style="opacity: 1; stroke-width: 0px; fill: rgb(110, 206, 88); fill-opacity: 1;"/><path class="point" transform="translate(450,31.83)" d="M3,0A3,3 0 1,1 0,-3A3,3 0 0,1 3,0Z" style="opacity: 1; stroke-width: 0px; fill: rgb(110, 206, 88); fill-opacity: 1;"/><path class="point" transform="translate(450,13.35)" d="M3,0A3,3 0 1,1 0,-3A3,3 0 0,1 3,0Z" style="opacity: 1; stroke-width: 0px; fill: rgb(110, 206, 88); fill-opacity: 1;"/><path class="point" transform="translate(450,13.35)" d="M3,0A3,3 0 1,1 0,-3A3,3 0 0,1 3,0Z" style="opacity: 1; stroke-width: 0px; fill: rgb(110, 206, 88); fill-opacity: 1;"/></g></g><g class="trace boxes" style="opacity: 1;"><path class="box" d="M495.3,161.23H524.7M495.3,179.71H524.7V124.26H495.3ZM510,179.71V253.65M510,124.26V50.32M502.65,253.65H517.35M502.65,50.32H517.35" style="vector-effect: none; stroke-width: 2px; stroke: rgb(181, 222, 43); stroke-opacity: 1; fill: rgb(181, 222, 43); fill-opacity: 0.5;"/><g class="points"><path class="point" transform="translate(510,31.83)" d="M3,0A3,3 0 1,1 0,-3A3,3 0 0,1 3,0Z" style="opacity: 1; stroke-width: 0px; fill: rgb(181, 222, 43); fill-opacity: 1;"/><path class="point" transform="translate(510,31.83)" d="M3,0A3,3 0 1,1 0,-3A3,3 0 0,1 3,0Z" style="opacity: 1; stroke-width: 0px; fill: rgb(181, 222, 43); fill-opacity: 1;"/><path class="point" transform="translate(510,31.83)" d="M3,0A3,3 0 1,1 0,-3A3,3 0 0,1 3,0Z" style="opacity: 1; stroke-width: 0px; fill: rgb(181, 222, 43); fill-opacity: 1;"/><path class="point" transform="translate(510,13.35)" d="M3,0A3,3 0 1,1 0,-3A3,3 0 0,1 3,0Z" style="opacity: 1; stroke-width: 0px; fill: rgb(181, 222, 43); fill-opacity: 1;"/><path class="point" transform="translate(510,13.35)" d="M3,0A3,3 0 1,1 0,-3A3,3 0 0,1 3,0Z" style="opacity: 1; stroke-width: 0px; fill: rgb(181, 222, 43); fill-opacity: 1;"/><path class="point" transform="translate(510,13.35)" d="M3,0A3,3 0 1,1 0,-3A3,3 0 0,1 3,0Z" style="opacity: 1; stroke-width: 0px; fill: rgb(181, 222, 43); fill-opacity: 1;"/></g></g></g></g></g><g class="zerolinelayer-above"/><path class="xlines-above crisp" d="M0,0" style="fill: none;"/><path class="ylines-above crisp" d="M0,0" style="fill: none;"/><g class="overlines-above"/><g class="xaxislayer-above"><g class="xtick"><text text-anchor="end" x="0" y="380" transform="translate(110,0) rotate(-45,0,374)" style="font-family: 'Open Sans', verdana, arial, sans-serif; font-size: 12px; fill: rgb(42, 63, 95); fill-opacity: 1; white-space: pre;">Восточный</text></g><g class="xtick"><text text-anchor="end" x="0" y="380" transform="translate(170,0) rotate(-45,0,374)" style="font-family: 'Open Sans', verdana, arial, sans-serif; font-size: 12px; fill: rgb(42, 63, 95); fill-opacity: 1; white-space: pre;">Северный</text></g><g class="xtick"><text text-anchor="end" x="0" y="380" transform="translate(230,0) rotate(-45,0,374)" style="font-family: 'Open Sans', verdana, arial, sans-serif; font-size: 12px; fill: rgb(42, 63, 95); fill-opacity: 1; white-space: pre;">Северо-Восточный</text></g><g class="xtick"><text text-anchor="end" x="0" y="380" transform="translate(290,0) rotate(-45,0,374)" style="font-family: 'Open Sans', verdana, arial, sans-serif; font-size: 12px; fill: rgb(42, 63, 95); fill-opacity: 1; white-space: pre;">Северо-Западный</text></g><g class="xtick"><text text-anchor="end" x="0" y="380" transform="translate(350,0) rotate(-45,0,374)" style="font-family: 'Open Sans', verdana, arial, sans-serif; font-size: 12px; fill: rgb(42, 63, 95); fill-opacity: 1; white-space: pre;">Центральный</text></g><g class="xtick"><text text-anchor="end" x="0" y="380" transform="translate(410,0) rotate(-45,0,374)" style="font-family: 'Open Sans', verdana, arial, sans-serif; font-size: 12px; fill: rgb(42, 63, 95); fill-opacity: 1; white-space: pre;">Юго-Восточный</text></g><g class="xtick"><text text-anchor="end" x="0" y="380" transform="translate(470,0) rotate(-45,0,374)" style="font-family: 'Open Sans', verdana, arial, sans-serif; font-size: 12px; fill: rgb(42, 63, 95); fill-opacity: 1; white-space: pre;">Юго-Западный</text></g><g class="xtick"><text text-anchor="end" x="0" y="380" transform="translate(530,0) rotate(-45,0,374)" style="font-family: 'Open Sans', verdana, arial, sans-serif; font-size: 12px; fill: rgb(42, 63, 95); fill-opacity: 1; white-space: pre;">Южный</text></g><g class="xtick"><text text-anchor="end" x="0" y="380" transform="translate(590,0) rotate(-45,0,374)" style="font-family: 'Open Sans', verdana, arial, sans-serif; font-size: 12px; fill: rgb(42, 63, 95); fill-opacity: 1; white-space: pre;">Западный</text></g></g><g class="yaxislayer-above"><g class="ytick"><text text-anchor="end" x="79" y="4.199999999999999" transform="translate(0,335.16999999999996)" style="font-family: 'Open Sans', verdana, arial, sans-serif; font-size: 12px; fill: rgb(42, 63, 95); fill-opacity: 1; white-space: pre;">3.8</text></g><g class="ytick"><text text-anchor="end" x="79" y="4.199999999999999" style="font-family: 'Open Sans', verdana, arial, sans-serif; font-size: 12px; fill: rgb(42, 63, 95); fill-opacity: 1; white-space: pre;" transform="translate(0,298.2)">4</text></g><g class="ytick"><text text-anchor="end" x="79" y="4.199999999999999" style="font-family: 'Open Sans', verdana, arial, sans-serif; font-size: 12px; fill: rgb(42, 63, 95); fill-opacity: 1; white-space: pre;" transform="translate(0,261.23)">4.2</text></g><g class="ytick"><text text-anchor="end" x="79" y="4.199999999999999" style="font-family: 'Open Sans', verdana, arial, sans-serif; font-size: 12px; fill: rgb(42, 63, 95); fill-opacity: 1; white-space: pre;" transform="translate(0,224.26)">4.4</text></g><g class="ytick"><text text-anchor="end" x="79" y="4.199999999999999" style="font-family: 'Open Sans', verdana, arial, sans-serif; font-size: 12px; fill: rgb(42, 63, 95); fill-opacity: 1; white-space: pre;" transform="translate(0,187.29000000000002)">4.6</text></g><g class="ytick"><text text-anchor="end" x="79" y="4.199999999999999" style="font-family: 'Open Sans', verdana, arial, sans-serif; font-size: 12px; fill: rgb(42, 63, 95); fill-opacity: 1; white-space: pre;" transform="translate(0,150.32)">4.8</text></g><g class="ytick"><text text-anchor="end" x="79" y="4.199999999999999" style="font-family: 'Open Sans', verdana, arial, sans-serif; font-size: 12px; fill: rgb(42, 63, 95); fill-opacity: 1; white-space: pre;" transform="translate(0,113.35)">5</text></g></g><g class="overaxes-above"/></g></g><g class="polarlayer"/><g class="smithlayer"/><g class="ternarylayer"/><g class="geolayer"/><g class="funnelarealayer"/><g class="pielayer"/><g class="iciclelayer"/><g class="treemaplayer"/><g class="sunburstlayer"/><g class="glimages"/><defs id="topdefs-012306"><g class="clips"/></defs><g class="layer-above"><g class="imagelayer"/><g class="shapelayer"/></g><g class="infolayer"><g class="g-gtitle"><text class="gtitle" x="35" y="50" text-anchor="start" dy="0em" style="opacity: 1; font-family: 'Open Sans', verdana, arial, sans-serif; font-size: 17px; fill: rgb(42, 63, 95); fill-opacity: 1; white-space: pre;">Распределение рейтингов кофеен по административным округам</text></g><g class="g-xtitle"/><g class="g-ytitle"><text class="ytitle" transform="rotate(-90,39.975,233.5)" x="39.975" y="233.5" text-anchor="middle" style="opacity: 1; font-family: 'Open Sans', verdana, arial, sans-serif; font-size: 14px; fill: rgb(42, 63, 95); fill-opacity: 1; white-space: pre;">Рейтинг</text></g></g></svg>